<svg width="110" height="61" viewBox="0 0 110 61" fill="none" xmlns="http://www.w3.org/2000/svg">
<path d="M1.82636 33.8225H12.7846C13.7965 33.8225 14.6109 34.5761 14.6109 35.5112C14.6109 36.4477 13.7951 37.2013 12.7846 37.2013H1.82636C0.814421 37.2013 0 36.4477 0 35.5112C0 34.5761 0.815853 33.8211 1.82636 33.8211V33.8225ZM1.82636 20.3017H12.7846C13.7965 20.3017 14.6109 21.0553 14.6109 21.9918C14.6109 22.9282 13.7951 23.6819 12.7846 23.6819H1.82636C0.814421 23.6819 0 22.9269 0 21.9918C0 21.0553 0.815853 20.3017 1.82636 20.3017V20.3017ZM1.82636 6.7809H12.7846C13.7965 6.7809 14.6109 7.53456 14.6109 8.471C14.6109 9.40744 13.7951 10.1611 12.7846 10.1611H1.82636C0.814421 10.1611 0 9.40611 0 8.471C0 7.53456 0.815853 6.7809 1.82636 6.7809V6.7809ZM89.4904 43.9617C84.4665 43.9617 80.3586 47.7644 80.3586 52.4122C80.3586 57.0613 84.4665 60.8627 89.4904 60.8627C94.5129 60.8627 98.6223 57.0613 98.6223 52.4122C98.6223 47.7644 94.5129 43.9617 89.4904 43.9617ZM89.4904 47.3419C90.2109 47.3388 90.9249 47.4678 91.5912 47.7214C92.2575 47.9751 92.8629 48.3485 93.3724 48.8199C93.8818 49.2914 94.2853 49.8516 94.5594 50.4682C94.8336 51.0847 94.9729 51.7455 94.9695 52.4122C94.9729 53.0789 94.8336 53.7397 94.5594 54.3563C94.2853 54.9728 93.8818 55.533 93.3724 56.0045C92.8629 56.4759 92.2575 56.8493 91.5912 57.103C90.9249 57.3567 90.2109 57.4857 89.4904 57.4825C88.77 57.4857 88.0559 57.3567 87.3896 57.103C86.7234 56.8493 86.118 56.4759 85.6085 56.0045C85.0991 55.533 84.6956 54.9728 84.4215 54.3563C84.1473 53.7397 84.0079 53.0789 84.0113 52.4122C84.0079 51.7455 84.1473 51.0847 84.4215 50.4682C84.6956 49.8516 85.0991 49.2914 85.6085 48.8199C86.118 48.3485 86.7234 47.9751 87.3896 47.7214C88.0559 47.4678 88.77 47.3388 89.4904 47.3419V47.3419ZM42.005 43.9617C36.9825 43.9617 32.8731 47.7644 32.8731 52.4122C32.8731 57.0613 36.9825 60.8627 42.005 60.8627C47.0289 60.8627 51.1368 57.0613 51.1368 52.4122C51.1368 47.7644 47.0289 43.9617 42.005 43.9617V43.9617ZM42.005 47.3419C42.7254 47.3388 43.4395 47.4678 44.1057 47.7214C44.772 47.9751 45.3774 48.3485 45.8869 48.8199C46.3963 49.2914 46.7998 49.8516 47.0739 50.4682C47.3481 51.0847 47.4875 51.7455 47.4841 52.4122C47.4875 53.0789 47.3481 53.7397 47.0739 54.3563C46.7998 54.9728 46.3963 55.533 45.8869 56.0045C45.3774 56.4759 44.772 56.8493 44.1057 57.103C43.4395 57.3567 42.7254 57.4857 42.005 57.4825C41.2845 57.4857 40.5705 57.3567 39.9042 57.103C39.2379 56.8493 38.6325 56.4759 38.123 56.0045C37.6136 55.533 37.2101 54.9728 36.936 54.3563C36.6618 53.7397 36.5224 53.0789 36.5259 52.4122C36.5224 51.7455 36.6618 51.0847 36.936 50.4682C37.2101 49.8516 37.6136 49.2914 38.123 48.8199C38.6325 48.3485 39.2379 47.9751 39.9042 47.7214C40.5705 47.4678 41.2845 47.3388 42.005 47.3419V47.3419ZM23.7413 0.0205078C20.7398 0.0205078 18.2636 2.31194 18.2636 5.0908V42.2716C18.2636 45.0505 20.7398 47.3419 23.7427 47.3419H31.0482C33.5172 47.3764 33.5172 43.9286 31.0482 43.9617H23.7427C22.6979 43.9617 21.9164 43.2385 21.9164 42.2716V5.0908C21.9164 4.1239 22.6979 3.4007 23.7427 3.4007H71.2268C72.2717 3.4007 73.0532 4.1239 73.0532 5.0908V43.9617H52.9631C50.5528 43.9617 50.5972 47.3764 52.9631 47.3419H78.5323C80.9426 47.3419 80.9211 43.9617 78.5323 43.9617H76.7045V13.5413H92.1441L105.925 33.4701V42.2729C105.925 43.2399 105.143 43.963 104.098 43.963H100.45C98.0598 43.963 98.0598 47.3432 100.45 47.3432H104.101C107.104 47.3432 109.58 45.0518 109.58 42.2729V32.9774C109.581 32.6544 109.482 32.338 109.296 32.0648L94.6847 10.9373C94.5187 10.6987 94.2905 10.5026 94.0211 10.3669C93.7517 10.2313 93.4498 10.1605 93.1432 10.1611H76.7045V5.0908C76.7045 2.31194 74.2283 0.0205078 71.2268 0.0205078H23.7427H23.7413Z" fill="#5D98D7"/>
<path d="M46.542 39.2082V37.9301C46.542 37.5459 46.8182 37.2903 47.2333 37.2903C47.6484 37.2903 47.9246 37.5459 47.9246 37.9301V39.2082C47.9246 39.5923 47.6484 39.848 47.2333 39.848C46.8182 39.848 46.542 39.5923 46.542 39.2082ZM46.542 9.79443V8.51626C46.542 8.13215 46.8182 7.87651 47.2333 7.87651C47.6484 7.87651 47.9246 8.13215 47.9246 8.51626V9.79443C47.9246 10.1785 47.6484 10.4342 47.2333 10.4342C46.8182 10.4342 46.542 10.1785 46.542 9.79443ZM30.65 23.2225H32.0313C32.4463 23.2225 32.7226 23.4781 32.7226 23.8622C32.7226 24.2464 32.4463 24.502 32.0313 24.502H30.65C30.2349 24.502 29.9587 24.2464 29.9587 23.8622C29.9587 23.4781 30.2349 23.2225 30.65 23.2225ZM62.4354 23.2225H63.8166C64.2317 23.2225 64.5079 23.4781 64.5079 23.8622C64.5079 24.2464 64.2317 24.502 63.8166 24.502H62.4354C62.0203 24.502 61.744 24.2464 61.744 23.8622C61.744 23.4781 62.0203 23.2225 62.4354 23.2225ZM47.2333 11.7123C46.8182 11.7123 46.542 11.9693 46.542 12.3521V20.6648C45.1608 21.0489 43.7795 22.3271 43.7795 23.8622C43.7795 25.653 45.1608 27.0597 47.2333 27.0597C48.8922 27.0597 50.2734 25.7802 50.5497 24.502H56.7688C57.1838 24.502 57.4601 24.2464 57.4601 23.8622C57.4601 23.4781 57.1838 23.2225 56.7688 23.2225H50.6885C50.2734 21.9443 49.3059 21.0489 47.9246 20.6662V12.4806C47.9246 12.0965 47.6484 11.8408 47.2333 11.8408V11.7137V11.7123ZM47.2333 21.9443C48.3383 21.9443 49.3059 22.8397 49.3059 23.8622C49.3059 24.8848 48.3383 25.7802 47.2333 25.7802C46.1283 25.7802 45.1608 24.8848 45.1608 23.8622C45.1608 22.8397 46.1283 21.9443 47.2333 21.9443ZM47.2333 5.31885C36.1778 5.31885 27.1948 13.6316 27.1948 23.8622C27.1948 34.0929 36.1778 42.4056 47.2333 42.4056C58.2888 42.4056 67.2718 34.0929 67.2718 23.8622C67.2718 13.6316 58.2888 5.31885 47.2333 5.31885ZM47.2333 6.59834C49.6861 6.58888 52.1166 7.02896 54.3847 7.8932C56.6527 8.75745 58.7134 10.0287 60.4478 11.6337C62.1822 13.2387 63.5559 15.1456 64.4899 17.2445C65.4238 19.3433 65.8994 21.5925 65.8891 23.8622C65.8994 26.132 65.4238 28.3812 64.4899 30.48C63.5559 32.5789 62.1822 34.4858 60.4478 36.0908C58.7134 37.6957 56.6527 38.967 54.3847 39.8313C52.1166 40.6955 49.6861 41.1356 47.2333 41.1261C44.7805 41.1356 42.35 40.6955 40.082 39.8313C37.8139 38.967 35.7532 37.6957 34.0188 36.0908C32.2845 34.4858 30.9107 32.5789 29.9767 30.48C29.0428 28.3812 28.5673 26.132 28.5775 23.8622C28.5673 21.5925 29.0428 19.3433 29.9767 17.2445C30.9107 15.1456 32.2845 13.2387 34.0188 11.6337C35.7532 10.0287 37.8139 8.75745 40.082 7.8932C42.35 7.02896 44.7805 6.58888 47.2333 6.59834V6.59834Z" fill="#5D98D7" stroke="#5D98D7"/>
</svg>
