<svg width="76" height="64" viewBox="0 0 76 64" fill="none" xmlns="http://www.w3.org/2000/svg">
<path d="M2.16568 7.27423C19.8623 -1.33581 47.1266 -2.59098 74.6939 6.10714C74.6939 6.10714 74.4919 13.9465 71.5131 18.2845C71.5131 18.2845 40.3358 -0.344881 2.79679 14.1006C2.77155 14.0786 0.726724 10.5773 2.16568 7.27423Z" fill="#4588F7"/>
<path d="M6.78544 19.4736C6.78544 19.4736 8.75453 15.1575 16.4037 14.8933C24.0529 14.629 45.8643 13.0436 59.9509 18.2844C63.2327 19.8259 63.4599 22.7106 63.8639 22.7987C64.2678 22.8867 71.9927 20.9269 70.6547 18.6368C69.3167 16.3466 48.2626 8.41924 31.9797 8.61742C14.3841 8.81561 2.77152 14.1005 2.77152 14.1005C2.77152 14.1005 -0.409319 16.8751 6.78544 19.4736Z" fill="#0856D8"/>
<path d="M7.56794 35.1301L7.11353 18.2623C7.11353 18.2623 13.3742 11.9204 37.3063 14.1665C61.2383 16.4126 63.8638 22.7765 63.8638 22.7765C63.8638 22.7765 61.1626 41.6261 60.8849 42.1106C60.6072 42.595 56.1894 52.8566 56.0884 53.231C55.9874 53.6053 54.2455 54.8164 53.6901 54.9706C53.1347 55.1247 47.3284 53.1209 45.6875 41.8023C44.0214 30.4837 35.6401 23.305 29.9348 22.7986C24.2295 22.2921 16.757 27.8413 16.3784 28.0835C16.0249 28.3257 11.6071 34.8218 11.1527 35.2402C10.6983 35.6145 7.56794 35.1301 7.56794 35.1301Z" fill="#4588F7"/>
<path d="M12.0111 43.8723C12.2383 43.8062 18.8272 31.4967 28.6727 36.4073C38.4929 41.3179 42.2543 45.6339 41.9514 50.3463C41.6485 55.0587 35.9432 62.1273 36.4228 62.1273C36.9025 62.1273 51.5444 57.525 52.529 55.6753C53.5135 53.8256 48.616 53.0989 47.0509 49.4215C45.4857 45.766 45.9906 20.5525 30.6165 22.0499C15.2424 23.5693 4.81636 38.5653 12.0111 43.8723Z" fill="#80B0FF"/>
<path d="M17.7668 38.4551C23.4216 35.2841 31.7777 36.187 36.7004 41.2737C41.6231 46.3604 43.1631 55.8513 39.8055 58.0313C36.4732 60.2114 36.5742 64.3512 29.9348 63.1621C23.2954 61.973 18.6251 58.4718 16.4036 56.0935C14.1821 53.7153 11.3042 50.5664 11.8091 47.7477C12.3139 44.9291 17.7668 38.4551 17.7668 38.4551Z" fill="#5893F1"/>
<path d="M31.1719 44.1364C34.3023 46.9551 35.8422 51.8436 33.9741 53.0327C32.106 54.2218 28.3697 55.7413 24.4063 52.5483C20.4429 49.3333 20.7711 44.2465 23.0431 42.8152C25.2899 41.3618 31.1719 44.1364 31.1719 44.1364Z" fill="#FF833E"/>
<path d="M24.3052 54.0903C25.9966 55.1252 27.8647 55.6758 29.6318 55.6758C30.2377 55.6758 30.8183 55.6097 31.3989 55.4776C33.1408 55.0812 34.5293 54.0903 35.2866 52.703C37.0538 49.51 35.2614 45.0398 31.197 42.5515C28.925 41.1642 26.35 40.6577 24.1032 41.1642C22.3613 41.5606 20.9728 42.5515 20.2155 43.9388C18.4484 47.1538 20.2407 51.602 24.3052 54.0903ZM22.7147 45.0178C23.1187 44.2691 23.8507 43.7626 24.7848 43.5424C25.113 43.4764 25.4664 43.4323 25.8198 43.4323C27.0063 43.4323 28.3443 43.8287 29.5561 44.5774C32.434 46.339 33.8982 49.5761 32.7369 51.668C32.333 52.4167 31.6009 52.9232 30.6668 53.1434C29.2531 53.4737 27.4608 53.0773 25.8956 52.1304C23.0429 50.3468 21.5787 47.0877 22.7147 45.0178Z" fill="#002D76"/>
<path d="M75.6026 6.63589C75.5774 5.95325 74.9463 5.44678 74.1637 5.44678C73.3811 5.4688 72.7752 6.01931 72.8005 6.70195C72.8005 6.76801 72.9519 12.7796 70.6042 16.9415C67.7767 14.277 46.7226 7.14236 30.6417 7.67085C28.7736 7.73691 28.8998 10.1812 30.7427 10.1151C47.1518 9.58664 69.2914 17.448 68.8623 19.1215C68.7613 19.4959 67.8525 20.3327 65.227 21.3016C62.9297 11.9649 8.50203 10.0491 6.28049 17.8884C4.89203 17.426 3.60455 16.6332 3.37734 15.8625C3.40259 15.7524 3.47832 15.6643 3.55406 15.5322C4.48812 14.3431 9.08266 11.6346 17.9183 10.7758C19.7612 10.5996 19.4583 8.17733 17.6154 8.35349C10.6478 9.01411 5.57364 10.8418 2.87245 12.7136C2.62 10.9739 3.04916 8.83794 3.32685 7.95712C3.8065 6.39366 1.10532 5.77709 0.625664 7.31852C0.474196 7.825 -0.762799 12.097 0.726642 15.0477C-0.18217 17.426 2.97343 19.628 6.30574 20.4428C5.92707 26.3883 5.54839 40.8338 7.26504 46.405C8.80497 51.3596 11.9353 53.3855 13.1471 53.9801C16.4794 59.6394 22.942 63.8453 31.1213 63.8453C44.5768 63.8453 48.5655 60.2339 53.5892 57.107C55.2049 56.6886 59.7742 50.743 61.4151 44.7094C62.5763 40.4595 64.4192 28.2601 65.0503 23.944C68.2059 22.9311 70.2255 21.8301 71.1343 20.5969C75.8298 16.1047 75.6026 7.03226 75.6026 6.63589ZM38.1141 54.927C37.0539 56.8207 35.2362 57.8337 35.1605 57.8337C26.1229 62.6782 12.4907 50.6109 17.3882 41.7587C21.4526 34.4038 34.4284 37.9711 38.1899 46.8454C39.4016 49.7081 39.3764 52.6368 38.1141 54.927ZM39.5531 60.7844C47.0003 54.6627 44.3748 42.7496 34.5294 36.8921C24.9616 31.2108 14.3336 34.3377 11.5566 42.1771C11.4052 38.1473 12.8694 33.6551 15.6211 30.3961C18.7514 26.6526 22.7148 25.1552 27.3851 25.3534C29.9853 25.4635 32.535 26.014 34.7566 27.159C39.1492 29.3611 41.6737 34.3377 41.6737 34.4919C43.7437 38.4556 43.7942 39.1823 44.2739 43.3662C44.804 48.2107 45.94 53.4736 50.8123 55.8738C47.4547 58.0319 44.804 59.8155 39.5531 60.7844ZM62.4753 22.1163C62.4501 22.2925 60.0014 39.2263 58.6634 44.1809C57.6283 48.0345 55.2301 51.8661 53.5134 53.8259C52.0997 52.4607 50.0297 51.9762 49.0451 48.8713C47.6314 44.4452 49.449 36.3196 45.8643 30.7484C40.3104 22.0723 30.5155 17.448 19.7864 21.4557C14.485 23.0852 10.2944 27.0269 8.75447 32.0696C8.70399 19.6941 9.53707 19.4298 8.98168 18.7472C8.32532 17.2718 17.2367 15.0918 34.3527 15.5102C50.8123 16.1488 62.9297 19.606 62.4753 22.1163Z" fill="#002D76"/>
</svg>
