<svg width="53" height="51" viewBox="0 0 53 51" fill="none" xmlns="http://www.w3.org/2000/svg">
<path d="M1.5129 5.97835C13.8763 -0.779849 32.924 -1.76506 52.1833 5.06228C52.1833 5.06228 52.0422 11.2155 49.9611 14.6206C49.9611 14.6206 28.1797 -0.00205109 1.95382 11.3365C1.93618 11.3192 0.507607 8.57101 1.5129 5.97835Z" fill="#4588F7"/>
<path d="M4.7404 15.5539C4.7404 15.5539 6.11606 12.1661 11.46 11.9587C16.8039 11.7513 32.0421 10.5068 41.8834 14.6205C44.1762 15.8304 44.3349 18.0947 44.6171 18.1638C44.8993 18.2329 50.2961 16.6946 49.3614 14.8971C48.4266 13.0995 33.7176 6.87709 22.3419 7.03265C10.0491 7.18821 1.93615 11.3365 1.93615 11.3365C1.93615 11.3365 -0.286079 13.5143 4.7404 15.5539Z" fill="#0856D8"/>
<path d="M5.28719 27.8429L4.96973 14.603C4.96973 14.603 9.34364 9.62514 26.0633 11.3882C42.7829 13.1512 44.6172 18.1464 44.6172 18.1464C44.6172 18.1464 42.73 32.9418 42.536 33.3221C42.342 33.7023 39.2556 41.7568 39.185 42.0507C39.1145 42.3445 37.8976 43.2952 37.5095 43.4161C37.1215 43.5371 33.0651 41.9643 31.9187 33.0801C30.7547 24.1959 24.8993 18.5612 20.9134 18.1636C16.9275 17.7661 11.707 22.1218 11.4424 22.3119C11.1955 22.502 8.10907 27.6009 7.79161 27.9293C7.47415 28.2232 5.28719 27.8429 5.28719 27.8429Z" fill="#4588F7"/>
<path d="M8.39147 34.705C8.5502 34.6532 13.1534 24.9912 20.0317 28.8456C26.8924 32.7 29.5203 36.0878 29.3087 39.7866C29.097 43.4855 25.1111 49.0338 25.4462 49.0338C25.7813 49.0338 36.0106 45.4213 36.6985 43.9694C37.3863 42.5176 33.9648 41.9472 32.8713 39.0607C31.7778 36.1915 32.1305 16.4008 21.3898 17.5762C10.649 18.7688 3.36499 30.5395 8.39147 34.705Z" fill="#80B0FF"/>
<path d="M12.4125 30.4528C16.3631 27.9639 22.2009 28.6725 25.6401 32.6652C29.0792 36.6579 30.1551 44.1075 27.8094 45.8187C25.4813 47.5298 25.5519 50.7793 20.9134 49.8459C16.2749 48.9126 13.0121 46.1644 11.4601 44.2976C9.90807 42.4309 7.89748 39.9593 8.25022 37.7469C8.60295 35.5345 12.4125 30.4528 12.4125 30.4528Z" fill="#5893F1"/>
<path d="M21.7775 34.9121C23.9645 37.1245 25.0403 40.9616 23.7352 41.895C22.4301 42.8283 19.8198 44.021 17.0509 41.5147C14.2819 38.9912 14.5112 34.9985 16.0985 33.875C17.6681 32.7342 21.7775 34.9121 21.7775 34.9121Z" fill="#FF833E"/>
<path d="M16.9805 42.7249C18.1622 43.5373 19.4673 43.9694 20.7019 43.9694C21.1252 43.9694 21.5308 43.9175 21.9365 43.8138C23.1534 43.5027 24.1234 42.7249 24.6525 41.636C25.8871 39.1298 24.6349 35.621 21.7954 33.6679C20.2081 32.579 18.4091 32.1814 16.8394 32.579C15.6225 32.8901 14.6525 33.6679 14.1234 34.7568C12.8888 37.2803 14.141 40.7718 16.9805 42.7249ZM15.8694 35.6037C16.1516 35.0161 16.6631 34.6185 17.3156 34.4457C17.5449 34.3938 17.7918 34.3593 18.0387 34.3593C18.8677 34.3593 19.8024 34.6704 20.649 35.258C22.6596 36.6408 23.6825 39.1816 22.8712 40.8236C22.589 41.4113 22.0776 41.8088 21.425 41.9817C20.4373 42.2409 19.1851 41.9298 18.0917 41.1866C16.0987 39.7866 15.0758 37.2285 15.8694 35.6037Z" fill="#002D76"/>
<path d="M52.8183 5.47682C52.8006 4.941 52.3597 4.54346 51.813 4.54346C51.2662 4.56074 50.843 4.99285 50.8606 5.52867C50.8606 5.58052 50.9664 10.2992 49.3262 13.5659C47.3509 11.4745 32.6418 5.87436 21.4072 6.28918C20.1021 6.34103 20.1903 8.2596 21.4778 8.20775C32.9416 7.79292 48.4091 13.9635 48.1093 15.2771C48.0387 15.5709 47.4038 16.2277 45.5696 16.9882C43.9646 9.65964 5.93977 8.1559 4.38774 14.3091C3.41772 13.9462 2.51824 13.3239 2.35951 12.719C2.37715 12.6326 2.43006 12.5634 2.48297 12.4597C3.13553 11.5264 6.34542 9.40037 12.5183 8.72628C13.8058 8.58801 13.5941 6.68672 12.3066 6.825C7.4389 7.34353 3.89391 8.77814 2.00678 10.2473C1.83041 8.88184 2.13023 7.20526 2.32424 6.51388C2.65934 5.28669 0.772206 4.80272 0.437108 6.01263C0.331288 6.41017 -0.532915 9.76335 0.507654 12.0795C-0.127269 13.9462 2.07733 15.6746 4.40538 16.3141C4.14083 20.9809 3.87627 32.3195 5.07557 36.6924C6.15141 40.5814 8.33838 42.1716 9.18494 42.6383C11.513 47.0804 16.028 50.3817 21.7423 50.3817C31.1427 50.3817 33.9293 47.5471 37.439 45.0927C38.5678 44.7643 41.76 40.0975 42.9064 35.3615C43.7177 32.0257 45.0052 22.4501 45.4461 19.0624C47.6507 18.2673 49.0616 17.4031 49.6966 16.4351C52.977 12.9091 52.8183 5.78793 52.8183 5.47682ZM26.6277 43.3815C25.8869 44.868 24.6171 45.663 24.5642 45.663C18.2502 49.4656 8.72638 39.9938 12.1479 33.0454C14.9874 27.2724 24.0527 30.0725 26.6806 37.0381C27.5272 39.2851 27.5095 41.5839 26.6277 43.3815ZM27.633 47.9792C32.8358 43.1741 31.0016 33.8232 24.1233 29.2256C17.4389 24.7662 10.0139 27.2206 8.07382 33.3738C7.968 30.2108 8.99093 26.6848 10.9133 24.1267C13.1003 21.1883 15.8693 20.013 19.1321 20.1686C20.9487 20.255 22.73 20.6871 24.282 21.5859C27.3508 23.3143 29.1145 27.2206 29.1145 27.3416C30.5607 30.4528 30.596 31.0232 30.9311 34.3072C31.3014 38.1098 32.0951 42.2407 35.499 44.1247C33.1533 45.8186 31.3014 47.2186 27.633 47.9792ZM43.6472 17.6277C43.6295 17.766 41.9188 31.0577 40.984 34.9467C40.2609 37.9715 38.5854 40.979 37.3861 42.5173C36.3984 41.4457 34.9522 41.0654 34.2644 38.6283C33.2767 35.1541 34.5466 28.7762 32.0422 24.4032C28.1621 17.5932 21.319 13.9635 13.8234 17.1092C10.1197 18.3883 7.19198 21.4822 6.11614 25.4403C6.08087 15.7265 6.66288 15.5191 6.27488 14.9832C5.81632 13.8252 12.0421 12.114 23.9998 12.4424C35.499 12.9437 43.9646 15.6573 43.6472 17.6277Z" fill="#002D76"/>
</svg>
