<svg width="36" height="30" viewBox="0 0 36 30" fill="none" xmlns="http://www.w3.org/2000/svg">
<path d="M1.03119 3.97771C9.45764 0.072624 22.4399 -0.49666 35.5664 3.44837C35.5664 3.44837 35.4703 7.0039 34.0518 8.97142C34.0518 8.97142 19.2064 0.522058 1.33171 7.07381C1.31968 7.06382 0.346015 5.47582 1.03119 3.97771Z" fill="#4588F7"/>
<path d="M3.23115 9.51042C3.23115 9.51042 4.16876 7.55288 7.81101 7.43303C11.4533 7.31318 21.8391 6.59409 28.5466 8.9711C30.1093 9.67022 30.2174 10.9786 30.4098 11.0185C30.6021 11.0585 34.2804 10.1696 33.6433 9.13089C33.0062 8.0922 22.981 4.49673 15.2277 4.58662C6.84935 4.6765 1.31987 7.07349 1.31987 7.07349C1.31987 7.07349 -0.194729 8.3319 3.23115 9.51042Z" fill="#0856D8"/>
<path d="M3.60358 16.6116L3.38721 8.96127C3.38721 8.96127 6.36832 6.0849 17.7639 7.10361C29.1594 8.12233 30.4096 11.0087 30.4096 11.0087C30.4096 11.0087 29.1234 19.5579 28.9911 19.7777C28.8589 19.9974 26.7553 24.6515 26.7072 24.8213C26.6591 24.9911 25.8297 25.5404 25.5653 25.6103C25.3008 25.6802 22.5361 24.7714 21.7547 19.6378C20.9614 14.5043 16.9705 11.2484 14.2539 11.0187C11.5372 10.789 7.97909 13.3058 7.79878 13.4157C7.63049 13.5255 5.52688 16.4718 5.31051 16.6616C5.09414 16.8314 3.60358 16.6116 3.60358 16.6116Z" fill="#4588F7"/>
<path d="M5.71943 20.5765C5.82761 20.5465 8.96499 14.9636 13.653 17.1908C18.3291 19.418 20.1201 21.3755 19.9759 23.5128C19.8316 25.6501 17.115 28.8561 17.3434 28.8561C17.5718 28.8561 24.5437 26.7687 25.0125 25.9298C25.4813 25.0908 23.1493 24.7612 22.404 23.0933C21.6588 21.4354 21.8992 9.99981 14.5786 10.679C7.25806 11.3681 2.29355 18.1695 5.71943 20.5765Z" fill="#80B0FF"/>
<path d="M8.46034 18.1199C11.153 16.6817 15.1318 17.0912 17.4758 19.3983C19.8198 21.7054 20.5531 26.0099 18.9543 26.9987C17.3676 27.9875 17.4157 29.8651 14.2543 29.3258C11.0929 28.7864 8.86904 27.1984 7.81123 26.1198C6.75341 25.0412 5.38306 23.613 5.62347 22.3346C5.86389 21.0562 8.46034 18.1199 8.46034 18.1199Z" fill="#5893F1"/>
<path d="M14.843 20.696C16.3336 21.9744 17.0668 24.1916 16.1773 24.7309C15.2878 25.2703 13.5087 25.9594 11.6215 24.5112C9.73426 23.0531 9.89053 20.746 10.9724 20.0968C12.0422 19.4376 14.843 20.696 14.843 20.696Z" fill="#FF833E"/>
<path d="M11.5734 25.211C12.3788 25.6804 13.2684 25.93 14.1098 25.93C14.3983 25.93 14.6748 25.9001 14.9512 25.8402C15.7807 25.6604 16.4418 25.211 16.8024 24.5817C17.6439 23.1336 16.7904 21.1061 14.8551 19.9775C13.7732 19.3483 12.5471 19.1186 11.4773 19.3483C10.6479 19.5281 9.98673 19.9775 9.62611 20.6067C8.78467 22.0649 9.63813 24.0824 11.5734 25.211ZM10.8162 21.0961C11.0085 20.7566 11.3571 20.5268 11.8018 20.427C11.9581 20.397 12.1264 20.377 12.2947 20.377C12.8597 20.377 13.4967 20.5568 14.0737 20.8964C15.4441 21.6954 16.1413 23.1635 15.5883 24.1123C15.396 24.4519 15.0474 24.6816 14.6026 24.7815C13.9295 24.9313 13.076 24.7515 12.3307 24.3221C10.9724 23.5131 10.2752 22.035 10.8162 21.0961Z" fill="#002D76"/>
<path d="M35.9992 3.68776C35.9871 3.37815 35.6866 3.14844 35.314 3.14844C34.9413 3.15842 34.6529 3.40811 34.6649 3.71772C34.6649 3.74768 34.737 6.47425 33.6191 8.36187C32.2728 7.1534 22.2476 3.91747 14.5904 4.15717C13.7009 4.18713 13.761 5.29573 14.6385 5.26577C22.4519 5.02607 32.994 8.59159 32.7897 9.35063C32.7416 9.52042 32.3088 9.89994 31.0587 10.3394C29.9648 6.10472 4.04835 5.23581 2.99054 8.79133C2.3294 8.5816 1.71635 8.22205 1.60817 7.87249C1.62019 7.82255 1.65625 7.7826 1.69231 7.72268C2.13707 7.18336 4.32483 5.9549 8.53204 5.56539C9.40955 5.4855 9.2653 4.38688 8.38779 4.46678C5.0701 4.7664 2.65396 5.59536 1.36775 6.44429C1.24755 5.65528 1.4519 4.6865 1.58412 4.287C1.81251 3.5779 0.52631 3.29825 0.297918 3.99737C0.225794 4.22708 -0.363217 6.16464 0.346 7.50296C-0.0867424 8.5816 1.41584 9.58034 3.00256 9.94988C2.82225 12.6465 2.64194 19.1982 3.45934 21.7251C4.1926 23.9722 5.68316 24.8911 6.26015 25.1607C7.84687 27.7275 10.9241 29.6351 14.8188 29.6351C21.2258 29.6351 23.1251 27.9972 25.5172 26.5789C26.2865 26.3892 28.4622 23.6926 29.2436 20.956C29.7965 19.0284 30.674 13.4954 30.9745 11.5379C32.4771 11.0785 33.4388 10.5791 33.8715 10.0198C36.1073 7.98235 35.9992 3.86753 35.9992 3.68776ZM18.1485 25.5902C17.6437 26.4491 16.7782 26.9085 16.7421 26.9085C12.4387 29.1058 5.94761 23.6327 8.27961 19.6177C10.2149 16.2819 16.3935 17.8999 18.1846 21.9248C18.7616 23.2232 18.7496 24.5515 18.1485 25.5902ZM18.8337 28.2468C22.3798 25.4703 21.1297 20.0671 16.4416 17.4105C11.8858 14.8337 6.82511 16.2519 5.50285 19.8075C5.43072 17.9798 6.12792 15.9423 7.43817 14.4642C8.92872 12.7663 10.816 12.0872 13.0398 12.1771C14.2779 12.227 15.492 12.4767 16.5498 12.996C18.6414 13.9948 19.8434 16.2519 19.8434 16.3219C20.8291 18.1196 20.8532 18.4492 21.0816 20.3468C21.334 22.544 21.8749 24.931 24.1949 26.0196C22.5962 26.9984 21.334 27.8074 18.8337 28.2468ZM29.7484 10.7089C29.7364 10.7888 28.5704 18.4692 27.9333 20.7163C27.4405 22.4641 26.2985 24.2019 25.4811 25.0908C24.808 24.4716 23.8223 24.2519 23.3535 22.8436C22.6803 20.8362 23.5458 17.1508 21.8389 14.624C19.1943 10.6889 14.5303 8.59159 9.42157 10.4093C6.89724 11.1484 4.90181 12.9361 4.16856 15.2232C4.14451 9.6103 4.5412 9.49045 4.27674 9.18084C3.96421 8.51169 8.20749 7.52293 16.3575 7.71269C24.1949 8.00233 29.9648 9.57035 29.7484 10.7089Z" fill="#002D76"/>
</svg>
