<svg width="21" height="17" viewBox="0 0 21 17" fill="none" xmlns="http://www.w3.org/2000/svg">
<path d="M21.0001 3.07261H20.1939C19.8946 3.07261 19.4713 3.49782 19.4713 3.77005V13.6368C19.4713 13.9094 19.8946 14.2809 20.1939 14.2809H21.0001V16.6229H13.6962V14.2809H15.2249V3.90905H15.15L11.5801 16.6229H8.81631L5.29251 3.90905H5.20333V14.2809H6.73205V16.6229H0.617188V14.2809H1.40019C1.72265 14.2809 2.1459 13.9094 2.1459 13.6368V3.77005C2.1459 3.49782 1.72265 3.07261 1.40019 3.07261H0.617188V0.730577H8.26355L10.774 9.93141H10.843L13.3767 0.730577H21.0001V3.07261Z" fill="#88B5FF"/>
</svg>
