<svg width="19" height="16" viewBox="0 0 19 16" fill="none" xmlns="http://www.w3.org/2000/svg">
<path d="M6.97457 14.3229C6.43405 14.3229 6.5259 14.1276 6.33948 13.635L4.75 8.62846L16.9851 1.68164" fill="#326AC7"/>
<path d="M6.9751 14.3228C7.3922 14.3228 7.5765 14.1403 7.80931 13.9236L10.0339 11.8534L7.25901 10.252" fill="#88B5FF"/>
<path d="M7.25855 10.2524L13.9823 15.0067C14.7496 15.4119 15.3033 15.2021 15.4945 14.325L18.2314 1.98139C18.5116 0.906187 17.8031 0.418527 17.0691 0.737459L0.997999 6.66834C-0.099005 7.08945 -0.0926096 7.67519 0.798038 7.93619L4.92225 9.16815L14.4702 3.40307C14.921 3.14148 15.3347 3.28212 14.9951 3.57052" fill="#88B5FF"/>
</svg>
