<svg width="22" height="18" viewBox="0 0 22 18" fill="none" xmlns="http://www.w3.org/2000/svg">
<path fill-rule="evenodd" clip-rule="evenodd" d="M21.3118 2.74425C20.5617 3.08667 19.756 3.31713 18.9104 3.42189C19.7735 2.8896 20.4366 2.04696 20.7487 1.04326C19.9407 1.53595 19.0458 1.89375 18.0932 2.08657C17.3307 1.25147 16.2436 0.730957 15.041 0.730957C12.732 0.730957 10.8593 2.65586 10.8593 5.02925C10.8593 5.36643 10.896 5.69445 10.9676 6.00905C7.49171 5.829 4.41007 4.11688 2.3479 1.51761C1.98801 2.1527 1.7818 2.89058 1.7818 3.67822C1.7818 5.16936 2.52004 6.48487 3.64173 7.25631C2.957 7.23339 2.31175 7.04025 1.74804 6.71779V6.77181C1.74804 8.85548 3.19076 10.5921 5.10166 10.9874C4.75133 11.0856 4.38189 11.138 4.00194 11.138C3.7325 11.138 3.47007 11.1118 3.21529 11.0611C3.74715 12.7693 5.29179 14.012 7.12147 14.0467C5.69021 15.199 3.88697 15.8864 1.92703 15.8864C1.58943 15.8864 1.25726 15.8668 0.930176 15.8265C2.78056 17.0463 4.97904 17.758 7.34043 17.758C15.0318 17.758 19.2381 11.2074 19.2381 5.52766C19.2381 5.34106 19.234 5.1561 19.226 4.97114C20.0433 4.36552 20.7525 3.60767 21.313 2.74506" fill="#88B5FF"/>
</svg>
